<?xml version="1.0" encoding="UTF-8" standalone="no"?>
<svg
   xmlns:dc="http://purl.org/dc/elements/1.1/"
   xmlns:cc="http://creativecommons.org/ns#"
   xmlns:rdf="http://www.w3.org/1999/02/22-rdf-syntax-ns#"
   xmlns:svg="http://www.w3.org/2000/svg"
   xmlns="http://www.w3.org/2000/svg"
   xmlns:sodipodi="http://sodipodi.sourceforge.net/DTD/sodipodi-0.dtd"
   xmlns:inkscape="http://www.inkscape.org/namespaces/inkscape"
   viewBox="0 0 22 22"
   id="svg2"
   version="1.1"
   inkscape:version="0.91 r13725"
   sodipodi:docname="indicator-cpufreq.svg">
  <metadata
     id="metadata12">
    <rdf:RDF>
      <cc:Work
         rdf:about="">
        <dc:format>image/svg+xml</dc:format>
        <dc:type
           rdf:resource="http://purl.org/dc/dcmitype/StillImage" />
      </cc:Work>
    </rdf:RDF>
  </metadata>
  <defs
     id="defs10" />
  <sodipodi:namedview
     pagecolor="#ffffff"
     bordercolor="#666666"
     borderopacity="1"
     objecttolerance="10"
     gridtolerance="10"
     guidetolerance="10"
     inkscape:pageopacity="0"
     inkscape:pageshadow="2"
     inkscape:window-width="640"
     inkscape:window-height="480"
     id="namedview8"
     showgrid="false"
     inkscape:zoom="10.727273"
     inkscape:cx="11"
     inkscape:cy="11"
     inkscape:window-x="57"
     inkscape:window-y="24"
     inkscape:window-maximized="0"
     inkscape:current-layer="svg2" />
  <path
     d="m 7 2 c -0.554 0 -1 0.446 -1 1 l 0 1 l -0.25 0 c -0.97 0 -1.75 0.781 -1.75 1.75 l 0 0.25 l -1 0 c -0.554 0 -1 0.446 -1 1 c 0 0.554 0.446 1 1 1 l 1 0 l 0 2 l -1 0 c -0.554 0 -1 0.446 -1 1 c 0 0.554 0.446 1 1 1 l 1 0 l 0 2 l -1 0 c -0.554 0 -1 0.446 -1 1 c 0 0.554 0.446 1 1 1 l 1 0 l 0 0.25 c 0 0.97 0.781 1.75 1.75 1.75 l 0.25 0 l 0 1 c 0 0.554 0.446 1 1 1 c 0.554 0 1 -0.446 1 -1 l 0 -1 l 2 0 l 0 1 c 0 0.554 0.446 1 1 1 c 0.554 0 1 -0.446 1 -1 l 0 -1 l 2 0 l 0 1 c 0 0.554 0.446 1 1 1 c 0.554 0 1 -0.446 1 -1 l 0 -1 l 0.25 0 c 0.97 0 1.75 -0.781 1.75 -1.75 l 0 -0.25 l 1 0 c 0.554 0 1 -0.446 1 -1 c 0 -0.554 -0.446 -1 -1 -1 l -1 0 l 0 -2 l 1 0 c 0.554 0 1 -0.446 1 -1 c 0 -0.554 -0.446 -1 -1 -1 l -1 0 l 0 -2 l 1 0 c 0.554 0 1 -0.446 1 -1 c 0 -0.554 -0.446 -1 -1 -1 l -1 0 l 0 -0.25 c 0 -0.97 -0.781 -1.75 -1.75 -1.75 l -0.25 0 l 0 -1 c 0 -0.554 -0.446 -1 -1 -1 c -0.554 0 -1 0.446 -1 1 l 0 1 l -2 0 l 0 -1 c 0 -0.554 -0.446 -1 -1 -1 c -0.554 0 -1 0.446 -1 1 l 0 1 l -2 0 l 0 -1 c 0 -0.554 -0.446 -1 -1 -1 z m -0.156 4 l 8.313 0 c 0.462 0 0.844 0.382 0.844 0.844 l 0 8.313 c 0 0.462 -0.382 0.844 -0.844 0.844 l -8.313 0 c -0.462 0 -0.844 -0.382 -0.844 -0.844 l 0 -8.313 c 0 -0.462 0.382 -0.844 0.844 -0.844 z"
     style="fill:#333333;fill-opacity:1;stroke:none;fill-rule:evenodd"
     id="path4" />
  <rect
     width="8"
     height="8"
     x="7"
     y="7"
     rx="0.6"
     style="fill:#333333;fill-opacity:1;stroke:none;fill-rule:evenodd"
     id="rect6" />
</svg>
