<?xml version="1.0" encoding="UTF-8" standalone="no"?>
<svg
   xmlns:dc="http://purl.org/dc/elements/1.1/"
   xmlns:cc="http://creativecommons.org/ns#"
   xmlns:rdf="http://www.w3.org/1999/02/22-rdf-syntax-ns#"
   xmlns:svg="http://www.w3.org/2000/svg"
   xmlns="http://www.w3.org/2000/svg"
   xmlns:sodipodi="http://sodipodi.sourceforge.net/DTD/sodipodi-0.dtd"
   xmlns:inkscape="http://www.inkscape.org/namespaces/inkscape"
   viewBox="0 0 22 22"
   id="svg38"
   version="1.1"
   inkscape:version="0.91 r13725"
   sodipodi:docname="indicator-cpufreq-75.svg">
  <metadata
     id="metadata48">
    <rdf:RDF>
      <cc:Work
         rdf:about="">
        <dc:format>image/svg+xml</dc:format>
        <dc:type
           rdf:resource="http://purl.org/dc/dcmitype/StillImage" />
      </cc:Work>
    </rdf:RDF>
  </metadata>
  <defs
     id="defs46" />
  <sodipodi:namedview
     pagecolor="#ffffff"
     bordercolor="#666666"
     borderopacity="1"
     objecttolerance="10"
     gridtolerance="10"
     guidetolerance="10"
     inkscape:pageopacity="0"
     inkscape:pageshadow="2"
     inkscape:window-width="737"
     inkscape:window-height="480"
     id="namedview44"
     showgrid="false"
     inkscape:zoom="5.3636364"
     inkscape:cx="16.866922"
     inkscape:cy="-1.644922"
     inkscape:window-x="884"
     inkscape:window-y="215"
     inkscape:window-maximized="0"
     inkscape:current-layer="svg38" />
  <path
     d="m 7 2 c -0.554 0 -1 0.446 -1 1 l 0 1 l -0.25 0 c -0.97 0 -1.75 0.781 -1.75 1.75 l 0 0.25 l -1 0 c -0.554 0 -1 0.446 -1 1 c 0 0.554 0.446 1 1 1 l 1 0 l 0 2 l -1 0 c -0.554 0 -1 0.446 -1 1 c 0 0.554 0.446 1 1 1 l 1 0 l 0 2 l -1 0 c -0.554 0 -1 0.446 -1 1 c 0 0.554 0.446 1 1 1 l 1 0 l 0 0.25 c 0 0.97 0.781 1.75 1.75 1.75 l 0.25 0 l 0 1 c 0 0.554 0.446 1 1 1 c 0.554 0 1 -0.446 1 -1 l 0 -1 l 2 0 l 0 1 c 0 0.554 0.446 1 1 1 c 0.554 0 1 -0.446 1 -1 l 0 -1 l 2 0 l 0 1 c 0 0.554 0.446 1 1 1 c 0.554 0 1 -0.446 1 -1 l 0 -1 l 0.25 0 c 0.97 0 1.75 -0.781 1.75 -1.75 l 0 -0.25 l 1 0 c 0.554 0 1 -0.446 1 -1 c 0 -0.554 -0.446 -1 -1 -1 l -1 0 l 0 -2 l 1 0 c 0.554 0 1 -0.446 1 -1 c 0 -0.554 -0.446 -1 -1 -1 l -1 0 l 0 -2 l 1 0 c 0.554 0 1 -0.446 1 -1 c 0 -0.554 -0.446 -1 -1 -1 l -1 0 l 0 -0.25 c 0 -0.97 -0.781 -1.75 -1.75 -1.75 l -0.25 0 l 0 -1 c 0 -0.554 -0.446 -1 -1 -1 c -0.554 0 -1 0.446 -1 1 l 0 1 l -2 0 l 0 -1 c 0 -0.554 -0.446 -1 -1 -1 c -0.554 0 -1 0.446 -1 1 l 0 1 l -2 0 l 0 -1 c 0 -0.554 -0.446 -1 -1 -1 z m -0.156 4 l 8.313 0 c 0.462 0 0.844 0.382 0.844 0.844 l 0 8.313 c 0 0.462 -0.382 0.844 -0.844 0.844 l -8.313 0 c -0.462 0 -0.844 -0.382 -0.844 -0.844 l 0 -8.313 c 0 -0.462 0.382 -0.844 0.844 -0.844 z"
     style="fill:#333333;fill-opacity:1;stroke:none;fill-rule:evenodd"
     id="path40" />
  <path
     d="m 7.6,9 6.8,0 C 14.7324,9 15,9.2676 15,9.6 l 0,4.8 C 15,14.7324 14.7324,15 14.4,15 L 7.6,15 C 7.2676,15 7,14.7324 7,14.4 L 7,9.6 C 7,9.2676 7.2676,9 7.6,9 z"
     style="fill:#333333;fill-opacity:1;stroke:none;fill-rule:evenodd"
     id="path42" />
</svg>
