<?xml version="1.0" encoding="UTF-8" standalone="no"?>
<!-- Created with Inkscape (http://www.inkscape.org/) -->

<svg
   xmlns:dc="http://purl.org/dc/elements/1.1/"
   xmlns:cc="http://creativecommons.org/ns#"
   xmlns:rdf="http://www.w3.org/1999/02/22-rdf-syntax-ns#"
   xmlns:svg="http://www.w3.org/2000/svg"
   xmlns="http://www.w3.org/2000/svg"
   xmlns:sodipodi="http://sodipodi.sourceforge.net/DTD/sodipodi-0.dtd"
   xmlns:inkscape="http://www.inkscape.org/namespaces/inkscape"
   width="48px"
   height="48px"
   id="svg3387"
   sodipodi:version="0.32"
   inkscape:version="0.92.1 r15371"
   sodipodi:docname="nm-signal-75.svg"
   inkscape:output_extension="org.inkscape.output.svg.inkscape"
   version="1.1">
  <defs
     id="defs3389">
    <linearGradient
       id="linearGradient2521">
      <stop
         id="stop2523"
         offset="0"
         style="stop-color:#a6c3e4;stop-opacity:1;" />
      <stop
         id="stop2525"
         offset="1"
         style="stop-color:#3f76bc;stop-opacity:1;" />
    </linearGradient>
  </defs>
  <sodipodi:namedview
     id="base"
     pagecolor="#ffffff"
     bordercolor="#666666"
     borderopacity="1.0"
     inkscape:pageopacity="0.0"
     inkscape:pageshadow="2"
     inkscape:zoom="7"
     inkscape:cx="47.194568"
     inkscape:cy="-25.882761"
     inkscape:current-layer="layer1"
     showgrid="true"
     inkscape:grid-bbox="true"
     inkscape:document-units="px"
     inkscape:window-width="1838"
     inkscape:window-height="1736"
     inkscape:window-x="570"
     inkscape:window-y="155"
     inkscape:window-maximized="0" />
  <metadata
     id="metadata3392">
    <rdf:RDF>
      <cc:Work
         rdf:about="">
        <dc:format>image/svg+xml</dc:format>
        <dc:type
           rdf:resource="http://purl.org/dc/dcmitype/StillImage" />
        <dc:title></dc:title>
      </cc:Work>
    </rdf:RDF>
  </metadata>
  <g
     id="layer1"
     inkscape:label="Layer 1"
     inkscape:groupmode="layer">
    <path
       style="opacity:0.98000004;fill:#1a1a1a;fill-opacity:1;fill-rule:evenodd;stroke:none;stroke-width:5.33333349;stroke-linecap:round;stroke-linejoin:miter;stroke-miterlimit:4;stroke-dasharray:none;stroke-opacity:1;overflow:visible"
       d="M 28.574733,35.052298 C 28.373902,35.225514 23.941192,39.933943 23.941192,39.933943 C 23.941192,39.933943 19.550691,35.185725 19.385962,35.052298 C 19.680347,34.83113 20.881867,33.96138 23.950763,33.973784 C 26.970491,33.98599 28.344732,34.837915 28.574733,35.052298 z"
       id="path2538"
       sodipodi:nodetypes="ccczc" />
    <path
       style="overflow:visible;opacity:0.4;fill:none;fill-rule:evenodd;stroke:#868686;stroke-width:4;stroke-linecap:butt;stroke-linejoin:miter;stroke-miterlimit:4;stroke-dasharray:none;stroke-opacity:1"
       d="m 3.1159451,17.376485 c 0,0 6.6138633,-7.310428 20.8428739,-7.310428 1.789856,0 3.461577,0.117017 5.016428,0.321465 2.154342,0.283276 4.084319,0.734402 5.793299,1.274686 6.814849,2.154474 10.115509,5.726683 10.115509,5.726683"
       id="path2513"
       inkscape:connector-curvature="0"
       sodipodi:nodetypes="csssc" />
    <path
       style="fill:none;fill-rule:evenodd;stroke:#161616;stroke-width:4;stroke-linecap:butt;stroke-linejoin:miter;stroke-miterlimit:4;stroke-dasharray:none;stroke-opacity:1;overflow:visible"
       d="M 9.204781,23.851864 C 9.204781,23.851864 13.96799,18.69016 23.958819,18.873806 C 34.032521,19.058975 38.712857,23.934766 38.712857,23.934766"
       id="path2511" />
    <path
       style="overflow:visible;fill:none;fill-rule:evenodd;stroke:#191919;stroke-width:4;stroke-linecap:butt;stroke-linejoin:miter;stroke-miterlimit:4;stroke-dasharray:none;stroke-opacity:1"
       d="m 14.988249,30.322943 c 0,0 2.170265,-2.750913 8.819479,-2.821031 3.172004,-0.03345 5.398008,0.623729 6.85177,1.312095 1.55565,0.736612 2.227018,1.508936 2.227018,1.508936"
       id="path3209"
       sodipodi:nodetypes="cssc"
       inkscape:connector-curvature="0" />
    <path
       style="fill:none;fill-rule:evenodd;stroke:none;stroke-width:1;stroke-linecap:butt;stroke-linejoin:miter;stroke-opacity:1;opacity:0.3;stroke-miterlimit:4;stroke-dasharray:none"
       d="M 2.0501981,16.326623 C 2.0501981,16.326623 8.985404,8.4690591 23.838312,8.4690591 C 38.766418,8.4690591 45.921645,16.326623 45.921645,16.326623"
       id="path3360"
       sodipodi:nodetypes="czc" />
    <path
       style="opacity:0.3;fill:none;fill-rule:evenodd;stroke:none;stroke-width:1;stroke-linecap:butt;stroke-linejoin:miter;stroke-miterlimit:4;stroke-dasharray:none;stroke-opacity:1"
       d="M 8.1428988,22.810993 C 8.1428988,22.810993 13.103857,17.466203 23.878839,17.466203 C 34.708373,17.466203 39.763474,22.862448 39.763474,22.862448"
       id="path3362"
       sodipodi:nodetypes="czc" />
    <path
       style="opacity:0.3;fill:none;fill-rule:evenodd;stroke:none;stroke-width:1;stroke-linecap:butt;stroke-linejoin:miter;stroke-miterlimit:4;stroke-dasharray:none;stroke-opacity:1"
       d="M 13.857849,29.336821 C 13.857849,29.336821 16.313012,25.982859 23.900542,25.982859 C 31.534839,25.982859 33.921212,29.283604 33.921212,29.283604"
       id="path3364"
       sodipodi:nodetypes="czc"
       inkscape:transform-center-y="1.9969015" />
    <path
       style="opacity:0.3;fill:none;fill-rule:evenodd;stroke:none;stroke-width:1.00000012;stroke-linecap:butt;stroke-linejoin:miter;stroke-miterlimit:4;stroke-dasharray:none;stroke-opacity:1"
       d="M 19.771867,35.411037 C 19.771867,35.411037 20.65444,34.50512 23.923479,34.50512 C 27.212667,34.50512 28.24082,35.453679 28.24082,35.453679"
       id="path3366"
       sodipodi:nodetypes="czc"
       inkscape:transform-center-y="0.59153091" />
  </g>
</svg>
